<svg version="1.1" id="Layer_1" xmlns="http://www.w3.org/2000/svg" x="0" y="0" width="18.56" height="20" xml:space="preserve"><path fill="#DA2128" d="M5.29 13.162H16.3a2.275 2.275 0 002.27-2.269V6.21a.021.021 0 00-.01-.023V6.13a.028.028 0 01-.01-.027.03.03 0 01-.01-.027.023.023 0 01-.01-.024c-.004-.009-.008-.018-.01-.027a.028.028 0 01-.01-.021l-.02-.024c.002-.008-.002-.016-.01-.02a.033.033 0 00-.02-.024.023.023 0 00-.01-.024c-.01-.007-.01-.011-.02-.018a.2.2 0 00-.01-.021.163.163 0 01-.02-.017.189.189 0 00-.02-.02c-.01 0-.01-.013-.02-.017l-.03-.017a.082.082 0 00-.02-.012.045.045 0 01-.02-.016c-.01 0-.02-.009-.03-.012a.023.023 0 00-.02-.011.101.101 0 00-.03-.013.039.039 0 00-.02-.008.053.053 0 00-.03-.009.036.036 0 01-.02-.006.15.15 0 00-.03 0h-.02L4.13 3.787V1.78a.018.018 0 00-.01-.016v-.035a.047.047 0 00-.01-.036v-.021c-.008-.011-.014-.023-.02-.035v-.016c0-.013-.01-.021-.01-.035a.013.013 0 01-.01-.015c-.01-.008-.01-.016-.02-.025s-.01-.012-.01-.02c-.008-.004-.011-.013-.01-.021a.038.038 0 01-.02-.023.086.086 0 01-.01-.016.103.103 0 01-.031-.024.04.04 0 01-.01-.012.237.237 0 00-.03-.023.026.026 0 00-.02-.013.039.039 0 00-.02-.02.09.09 0 00-.03-.021c-.01 0-.01 0-.01-.009l-.06-.024L.759.046a.555.555 0 00-.43 1.022l2.69 1.134v12.159a2.27 2.27 0 001.98 2.249c-.216.345-.33.743-.33 1.15a2.24 2.24 0 004.48.014v-.013a2.168 2.168 0 00-.31-1.129h4.99a2.178 2.178 0 00-.31 1.129 2.24 2.24 0 102.24-2.24H5.289a1.161 1.161 0 01-1.16-1.159v-1.5a2.29 2.29 0 001.161.3zm2.76 4.588a1.13 1.13 0 11-2.26 0 1.13 1.13 0 012.26 0zm8.84 0a1.124 1.124 0 01-1.117 1.131h-.003a1.132 1.132 0 010-2.261 1.124 1.124 0 011.12 1.128v.002zm-.59-5.7H5.29a1.162 1.162 0 01-1.16-1.16V4.9l13.33 1.838v4.155a1.157 1.157 0 01-1.156 1.16H16.3v-.003z"/></svg>